<?xml version="1.0" encoding="UTF-8" standalone="no"?>
<svg
   xmlns:dc="http://purl.org/dc/elements/1.1/"
   xmlns:cc="http://creativecommons.org/ns#"
   xmlns:rdf="http://www.w3.org/1999/02/22-rdf-syntax-ns#"
   xmlns:svg="http://www.w3.org/2000/svg"
   xmlns="http://www.w3.org/2000/svg"
   viewBox="0 0 697.90668 140.61333"
   height="140.61333"
   width="697.90668"
   xml:space="preserve"
   id="svg2"
   version="1.1"><metadata
     id="metadata8"><rdf:RDF><cc:Work
         rdf:about=""><dc:format>image/svg+xml</dc:format><dc:type
           rdf:resource="http://purl.org/dc/dcmitype/StillImage" /></cc:Work></rdf:RDF></metadata><defs
     id="defs6" /><g
     transform="matrix(1.3333333,0,0,-1.3333333,0,140.61333)"
     id="g10"><g
       transform="scale(0.1)"
       id="g12"><path
         id="path14"
         style="fill:#ca4032;fill-opacity:1;fill-rule:nonzero;stroke:none"
         d="m 5234.31,401.57 -194.5,316.731 194.5,320.429 h -1902 V 401.57 h 197.37 1704.63" /><path
         id="path16"
         style="fill:#231f20;fill-opacity:1;fill-rule:evenodd;stroke:none"
         d="m 2165.3,279.676 c -7.74,-61.102 -58.59,-104.031 -129.51,-90.887 -28.95,5.457 -53.02,22.059 -66.61,44.871 -26.72,44.758 -15.75,181.281 -15.75,260.352 0,48.801 0,94.687 0,138.039 0,70.215 -8.95,154.414 19.39,193.66 15.68,21.797 45.57,40.133 81.1,41.102 34.85,1.046 68.73,-9.282 87.19,-32.629 12.25,-15.477 21.46,-37.868 24.19,-61.766 4.55,-39.352 0,-80.613 0,-123.453 0,-84.102 0,-162.188 0,-246.945 0,-40.86 4.55,-86.688 0,-122.344 z m 86,724.014 c -44.12,28.37 -99.5,43.98 -161.02,50.86 -20.22,0 -40.41,0 -60.54,0 -145.59,-18.12 -254.92,-87.288 -278.5,-228.839 -4.89,-29.723 -3.68,-61.742 -3.68,-98.094 0,-137.707 0,-265.207 0,-405.566 0,-36.582 -0.72,-68.528 3.68,-98.008 17.08,-113.73 88.65,-183.8828 194.95,-209.5117 13.39,-3.1993 27.71,-5.19927 42.38,-8.48052 14.37,-3.1914 31.36,-1.96094 44.79,-6.05078 17.73,0 35.47,0 53.26,0 134.45,14.6016 234.97,65.6328 269.98,176.758 12.2,38.699 13.33,82.039 13.33,136.824 0,98.098 0,197.414 0,299.082 0,97.746 7.51,208.399 -20.54,278.43 -19.16,47.847 -55.95,85.457 -98.09,112.596" /><path
         id="path18"
         style="fill:#d11641;fill-opacity:1;fill-rule:nonzero;stroke:none"
         d="m 5234.31,401.57 -194.5,316.731 194.5,320.429 h -1902 V 401.57 h 197.37 1704.63" /><path
         id="path20"
         style="fill:#ffffff;fill-opacity:1;fill-rule:nonzero;stroke:none"
         d="M 4511.25,835.141 V 586.777 h 53.41 v 251.016 h -53.41" /><path
         id="path22"
         style="fill:#ffffff;fill-opacity:1;fill-rule:nonzero;stroke:none"
         d="M 4804.37,836.523 V 689.227 l -88.18,147.781 -1.04,-0.617 v 0.132 h -53.37 v -2.609 -248.398 h 53.37 v 148.957 l 88.79,-148.614 0.43,0.235 v -0.578 h 53.42 v 251.007 h -53.42" /><path
         id="path24"
         style="fill:#ffffff;fill-opacity:1;fill-rule:nonzero;stroke:none"
         d="m 4370.35,636.758 v 201.035 h -53.32 V 586.777 h 53.26 0.06 67.89 v 49.981 h -67.89" /><path
         id="path26"
         style="fill:#ffffff;fill-opacity:1;fill-rule:nonzero;stroke:none"
         d="m 3986.39,787.059 v 50 H 3825.34 V 586.094 h 53.32 107.73 v 49.969 h -107.73 v 50.5 h 67.89 v 49.988 h -67.89 v 50.508 h 107.73" /><path
         id="path28"
         style="fill:#ffffff;fill-opacity:1;fill-rule:nonzero;stroke:none"
         d="m 3672.78,636.141 v -0.078 h -68.96 v 50.5 h 68.71 v -0.247 c 14.57,0 26.44,-9.636 26.44,-24.023 0.07,-14.383 -11.69,-26.055 -26.19,-26.152 z m -0.25,150.918 v -0.215 c 14.57,0 26.44,-9.672 26.44,-24.051 0.07,-14.375 -11.69,-26.027 -26.19,-26.152 v -0.09 h -68.96 v 50.508 z m 75.17,-24.18 c -0.05,40 -32.09,72.285 -72.04,73.914 v 0.266 h -71.84 -7.37 -46.04 v -2.567 -248.398 h 42.39 11.02 71.84 v 0.281 c 39.95,1.926 72.11,36.016 72.04,76.008 -0.01,19.265 -7.67,36.57 -19.76,49.773 12.17,13.645 19.81,31.465 19.76,50.723" /><path
         id="path30"
         style="fill:#ffffff;fill-opacity:1;fill-rule:nonzero;stroke:none"
         d="m 4119.87,787.059 h 52.34 c 14.52,0 23.44,-11.192 23.44,-26.094 0.1,-14.813 -8.92,-28.641 -23.44,-28.68 h -52.34 z m 88.51,-92.735 c 21.48,14.16 35.99,39.043 35.94,66.77 -0.02,41.578 -29.62,74.511 -69.78,75.781 v 0.184 h -54.67 -53.39 v -2.567 -248.398 h 53.39 v 96.172 h 13.82 c 16.03,-0.578 36.9,-4.707 40.85,-28.282 v -67.89 h 50.05 v 67.89 c 0.24,17.207 -6.12,30.371 -16.21,40.34" /><path
         id="path32"
         style="fill:#231f20;fill-opacity:1;fill-rule:nonzero;stroke:none"
         d="M 3337.94,353.848 3450.35,241.082 H 3337.46 V 35.0313 h 205.97 v 150.5627 55.488 112.766 h -205.49" /><path
         id="path34"
         style="fill:#231f20;fill-opacity:1;fill-rule:nonzero;stroke:none"
         d="M 1320.23,1038.38 V 607.645 H 1094.49 V 1035.08 H 889.414 V 24.4414 H 1094.49 V 446.883 h 225.74 V 27.7109 h 205.04 V 1038.38 h -205.04" /><path
         id="path36"
         style="fill:#231f20;fill-opacity:1;fill-rule:nonzero;stroke:none"
         d="m 285.059,344.637 70.379,281.582 71.609,-281.582 z M 508.535,24.4414 H 713.609 L 457.035,1032.85 H 251.941 L 0,24.4414 H 205.055 L 244.941,183.887 H 467.98 L 508.535,24.4414" /><path
         id="path38"
         style="fill:#231f20;fill-opacity:1;fill-rule:nonzero;stroke:none"
         d="m 2961.05,457.207 -0.42,1.082 257.85,579.271 H 2990.71 L 2848.35,713.641 2705.58,1038.38 h -224.14 l 254.91,-579.571 -1.04,-2.454 2.58,-1.074 9.54,-21.66 V 30.9805 h 205.04 V 440.047 l 7.47,16.68 1.11,0.48" /></g></g></svg>